<?xml version="1.0" encoding="utf-8"?>
<!-- Generator: Adobe Illustrator 16.0.0, SVG Export Plug-In . SVG Version: 6.00 Build 0)  -->
<!DOCTYPE svg PUBLIC "-//W3C//DTD SVG 1.1 Tiny//EN" "http://www.w3.org/Graphics/SVG/1.1/DTD/svg11-tiny.dtd">
<svg version="1.1" baseProfile="tiny" id="Layer_1" xmlns="http://www.w3.org/2000/svg" xmlns:xlink="http://www.w3.org/1999/xlink"
	 x="0px" y="0px" width="960px" height="560px" viewBox="0 0 960 560" overflow="scroll" xml:space="preserve">
<g>
	<g id="XMLID_1_">
		<g>
			<path d="M821,122v91h-20.74c-3.71-8-8.26-15.81-13.6-23c-5.33-7.18-11.24-13.61-17.65-19.16c-6.399-5.55-13.17-10.1-20.14-13.66
				c-6.98-3.55-13.87-5.69-20.87-6.4V213h-5.51L704,205.18V122h14.3c5.97,0,12.71,0.94,20.11,3.29c7.39,2.35,14.77,5.29,22.03,9.27
				c7.25,3.98,14.21,8.54,20.689,13.66c6.47,5.12,11.87,10.53,15.87,16.22V122H821z"/>
			<polygon points="694,122 694,200.87 685.68,197.43 670,190.79 670,122 			"/>
			<path d="M660.2,186.59c0,0.02,0,0.04,0,0.06l-0.13-0.06c0.01-0.02,0-0.04,0-0.05L660.2,186.59z"/>
			<path d="M660.07,186.54c0,0.01,0.01,0.03,0,0.05l-0.021-0.01l-2.16-0.96L660.07,186.54z"/>
			<polygon points="657.53,185.46 628.43,213 628.28,213 			"/>
			<path d="M657.53,185.46L628.28,213H561.85c-3.56-1-6.54-2.05-8.88-3.47c-2.35-1.42-4.26-3.22-5.689-5.28
				c-1.42-2.07-2.58-4.56-3.36-7.48c-0.78-2.91-0.92-6.29-1.92-10.13v-46.96c0-3.41,1.32-6.2,2.88-8.48
				c1.57-2.27,3.49-4.07,5.55-5.49c2.061-1.42,4.17-2.34,6.301-2.98c0.76-0.23,1.47-0.37,2.159-0.48L588.15,141h-12
				c-2.99,1-5.36,2.62-6.78,4.46c-1.43,1.85-2.37,4.18-3.37,7.03v30.52c1,2.85,1.27,4.75,2.62,6.17c1.35,1.42,4.04,2.82,7.75,3.82
				h52.93c1.42,0,2.561-0.09,3.41-0.73c0.86-0.64,1.53-1.15,2.03-2.01c0.5-0.85,0.819-1.74,0.96-2.67c0.14-0.92,0.21-1.6,0.21-2.03
				c0-1.56-0.391-3.38-1.17-5.45c-0.78-2.06-2.45-3.11-5.021-3.11H593v-19h21.68L657.53,185.46z"/>
			<path d="M585.81,253l-7.569,7.13L565.32,272H519.81c-2.989,1-5.329,2.68-6.609,4.52c-1.28,1.85-2.2,4.24-3.2,7.09v40.05
				L488.75,344H486v-73.2c0-2.27,0.68-4.47,1.96-6.68c1.28-2.2,2.96-4.12,4.95-5.83c1.99-1.7,4.17-2.97,6.51-3.97
				c2.35-0.99,4.59-1.32,6.73-1.32H585.81z"/>
			<path d="M531.97,169h-19.85c2.57,3,5.02,6.44,7.37,10.21c2.35,3.77,4.439,7.71,6.3,11.7c1.84,3.98,3.34,7.95,4.479,11.79
				c1.131,3.84,1.7,7.3,1.7,10.3h-26.89c-1.28-7-2.49-12.15-3.63-15.85c-1.141-3.7-2.061-6.17-2.771-7.31
				c-0.859-1.42-1.96-2.92-3.31-4.49c-1.351-1.56-2.7-2.95-4.061-4.16c-1.35-1.21-2.699-2.22-4.05-3
				c-1.35-0.78-2.529-1.19-3.52-1.19h-25.29l7.42-19h30.89l-0.43-1.67c-0.09-0.49-0.2-1-0.33-1.51c-0.27-1.13-0.62-2.29-1.06-3.37
				c-0.48-1.17-1.141-2.36-1.98-3.61c-0.28-0.41-0.58-0.84-0.9-1.27c-0.859-0.99-1.649-1.81-2.38-2.47
				c-0.72-0.66-1.39-1.16-1.989-1.52c-0.91-0.53-1.801-1.16-2.66-1.43c-0.29-0.09-0.57-0.15-0.86-0.15h-11.86l7.33-19h6.66
				c5.55,0,10.851,1.21,15.9,4.13s9.6,6.44,13.66,11.06c4.06,4.63,7.5,9.72,10.35,15.34C529.06,158.15,530.98,164,531.97,169z"/>
			<path d="M475.84,252.66v73.85c0,1.71-0.64,3.59-1.92,5.66c-1.28,2.061-2.85,3.94-4.7,5.65c-1.85,1.71-3.88,3.17-6.08,4.38
				c-2.21,1.21-4.24,1.81-6.08,1.81h-93.27V270.8c0-2.27,0.64-4.51,1.92-6.72c1.28-2.2,2.91-4.16,4.91-5.87
				c1.99-1.71,4.16-3.06,6.51-4.05c2.34-1,4.58-1.5,6.72-1.5H475.84z M451.72,312.42v-40.34h-54.21c-2.99,1.14-5.12,2.64-6.4,4.49
				c-1.28,1.85-2.28,4.19-2.99,7.041v40.979h53.57c3.84-1.14,6.37-2.53,7.58-4.16C450.47,318.79,451.29,316.12,451.72,312.42z"/>
			<path d="M354,316.05v0.431c0,3.13-0.58,6.329-1.3,9.6c-0.71,3.28-1.97,6.229-3.32,8.86c-1.35,2.63-2.99,4.8-4.91,6.5
				c-1.92,1.71-4.02,2.56-6.29,2.56h-49.02l3.42-5.75l-0.01-0.07l0.01-0.02L290.23,324h33.43c0.86,0,1.57-0.24,2.14-0.88
				c0.28-0.32,0.53-0.66,0.74-1.021c0.22-0.35,0.4-0.729,0.54-1.149c0.07-0.21,0.14-0.431,0.2-0.65c0.18-0.649,0.33-1.33,0.44-2.03
				c0.14-0.92,0.21-1.689,0.21-2.26c0-1.279-0.36-2.95-1.07-4.95c-0.71-1.989-1.7-3.06-2.98-3.06h-36.32l-1.05-6.15L284.37,289
				h54.66c1.56,0,3.26,0.69,4.97,2.32c1.7,1.64,3.32,3.64,4.75,6.27c1.42,2.63,2.71,5.58,3.63,8.86
				C353.31,309.72,354,312.92,354,316.05z"/>
			<polygon points="345,253 345,272 281.53,272 278.37,253 			"/>
			<polygon points="220,207.93 220,213 196,213 196,201.54 			"/>
			<polygon points="220,207.43 220,207.93 196,201.54 196,201.01 			"/>
			<path d="M128.8,193.47v19.42H11.2c0-2.99,0.53-6.37,1.6-10.14c1.07-3.77,2.49-7.61,4.27-11.52c1.77-3.92,3.87-7.79,6.29-11.64
				c2.42-3.84,5.05-7.32,7.9-10.45H11.2c0.99-5.27,2.88-10.75,5.65-16.44c2.78-5.69,6.16-10.81,10.14-15.37
				c3.98-4.55,8.54-8.32,13.66-11.31c5.12-2.99,10.53-4.48,16.22-4.48h69.37v19.21H60.71c-1.14,0.29-2.45,0.96-3.94,2.03
				c-1.5,1.06-2.89,2.38-4.17,3.94c-1.28,1.57-2.38,3.28-3.31,5.13c-0.92,1.85-1.38,3.63-1.38,5.33v0.43h70v19.42H57.3
				c-2.42,1.14-4.59,3.03-6.51,5.66s-3.88,6.22-5.87,10.78H128.8z"/>
		</g>
		<g>
			<path fill="none" stroke="#000000" stroke-width="2" stroke-miterlimit="10" d="M31.26,169.14H11.2
				c0.99-5.27,2.88-10.75,5.65-16.44c2.78-5.69,6.16-10.81,10.14-15.37c3.98-4.55,8.54-8.32,13.66-11.31
				c5.12-2.99,10.53-4.48,16.22-4.48h69.37v19.21H60.71c-1.14,0.29-2.45,0.96-3.94,2.03c-1.5,1.06-2.89,2.38-4.17,3.94
				c-1.28,1.57-2.38,3.28-3.31,5.13c-0.92,1.85-1.38,3.63-1.38,5.33v0.43h70v19.42H57.3c-2.42,1.14-4.59,3.03-6.51,5.66
				s-3.88,6.22-5.87,10.78h83.88v19.42H11.2c0-2.99,0.53-6.37,1.6-10.14c1.07-3.77,2.49-7.61,4.27-11.52
				c1.77-3.92,3.87-7.79,6.29-11.64C25.78,175.75,28.41,172.27,31.26,169.14z"/>
			<path fill="none" stroke="#000000" stroke-width="2" stroke-miterlimit="10" d="M307.87,169.14h-20.06
				c0.99-5.27,2.88-10.75,5.65-16.44c2.78-5.69,6.15-10.81,10.14-15.37c3.98-4.55,8.54-8.32,13.66-11.31
				c5.12-2.99,10.53-4.48,16.22-4.48h69.37v19.21h-65.53c-1.14,0.29-2.45,0.96-3.95,2.03c-1.49,1.06-2.88,2.38-4.16,3.94
				c-1.28,1.57-2.38,3.28-3.31,5.13c-0.92,1.85-1.38,3.63-1.38,5.33v0.43h70v19.42h-60.61c-2.42,1.14-4.59,3.03-6.51,5.66
				s-3.88,6.22-5.87,10.78h83.88v19.42h-117.6c0-2.99,0.53-6.37,1.6-10.14c1.06-3.77,2.48-7.61,4.27-11.52
				c1.77-3.92,3.87-7.79,6.29-11.64C302.39,175.75,305.02,172.27,307.87,169.14z"/>
			<path fill="none" stroke="#000000" stroke-width="2" stroke-miterlimit="10" d="M850.41,212.89c-3.561-0.85-6.51-1.99-8.86-3.42
				c-2.35-1.42-4.229-3.16-5.649-5.22c-1.431-2.07-2.53-4.56-3.311-7.48c-0.79-2.91-1.39-6.29-1.82-10.13v-46.96
				c0.29-3.41,1.211-6.26,2.78-8.54c1.561-2.27,3.38-4.12,5.44-5.55c2.06-1.42,4.16-2.45,6.3-3.09c2.13-0.64,3.979-0.96,5.55-0.96
				h91.99v19.42h-78.12c-2.99,1.14-5.2,2.64-6.62,4.48c-1.42,1.85-2.49,4.2-3.2,7.05v30.52c0.29,2.85,1.101,4.98,2.46,6.4
				c1.351,1.43,3.87,2.78,7.57,4.06h52.93c1.431,0,2.57-0.32,3.42-0.96c0.851-0.64,1.53-1.39,2.03-2.24
				c0.49-0.86,0.811-1.75,0.96-2.67c0.141-0.93,0.21-1.6,0.21-2.03c0-1.56-0.39-3.38-1.17-5.44c-0.79-2.06-2.46-3.1-5.02-3.1h-36.71
				v-19.42h52.29c1.569,0,3.199,0.61,4.909,1.81c1.711,1.21,3.311,2.99,4.801,5.34c1.5,2.35,2.739,5.23,3.739,8.64
				c0.99,3.42,1.49,7.26,1.49,11.53v0.43c0,3.7-0.569,7.18-1.7,10.45c-1.14,3.28-2.67,6.19-4.59,8.76
				c-1.92,2.56-4.09,4.58-6.51,6.08c-2.42,1.49-4.99,2.24-7.69,2.24H850.41z"/>
			<path fill="none" stroke="#000000" stroke-width="2" stroke-miterlimit="10" d="M363.79,270.8c0-2.27,0.64-4.51,1.92-6.72
				c1.28-2.2,2.91-4.16,4.91-5.87c1.99-1.71,4.16-3.06,6.51-4.05c2.34-1,4.58-1.5,6.72-1.5h91.99v73.85c0,1.71-0.64,3.59-1.92,5.66
				c-1.28,2.061-2.85,3.94-4.7,5.65c-1.85,1.71-3.88,3.17-6.08,4.38c-2.21,1.21-4.24,1.81-6.08,1.81h-93.27V270.8z"/>
			<path fill="none" stroke="#000000" stroke-width="2" stroke-miterlimit="10" d="M397.51,272.08c-2.99,1.14-5.12,2.64-6.4,4.49
				c-1.28,1.85-2.28,4.19-2.99,7.041v40.979h53.57c3.84-1.14,6.37-2.53,7.58-4.16c1.2-1.64,2.02-4.31,2.45-8.01v-40.34H397.51z"/>
			<path fill="none" stroke="#000000" stroke-width="2" stroke-miterlimit="10" d="M724.7,344.01H704.43
				c-3.71-8.109-8.22-15.76-13.56-22.939c-5.33-7.19-11.2-13.561-17.601-19.11c-6.409-5.54-13.1-10.1-20.069-13.66
				c-6.97-3.55-13.87-5.68-20.7-6.399v62.109h-24.12v-91.35h14.09c5.971,0,12.66,1.17,20.061,3.52
				c7.399,2.35,14.729,5.52,21.979,9.5c7.26,3.99,14.12,8.54,20.601,13.66c6.47,5.12,11.699,10.53,15.689,16.22V252.66h23.9V344.01z
				"/>
			<line fill="none" stroke="#000000" stroke-miterlimit="10" x1="146.59" y1="468.66" x2="154.38" y2="262.34"/>
			<line fill="none" stroke="#000000" stroke-miterlimit="10" x1="154.38" y1="262.34" x2="206.93" y2="487.15"/>
			<polyline fill="none" stroke="#000000" stroke-miterlimit="10" points="154.38,262.34 163.4,213.07 166.91,193.87 167.03,193.24 
							"/>
			<polyline fill="none" stroke="#000000" stroke-width="2" stroke-miterlimit="10" points="196,201.01 196,201.54 196,213 220,213 
				220,207.93 220,207.43 			"/>
			<path fill="none" stroke="#000000" stroke-width="2" stroke-miterlimit="10" d="M220,207.43V141h23.63c1.84,1,3.37,1.19,4.59,1.9
				c1.2,0.72,2.13,1.52,2.77,2.45c0.64,0.92,0.92,1.99,1.27,3.19c0.36,1.21,0.74,2.53,0.74,3.95V213h25v-72.46
				c-1-2.57-2.28-4.98-3.85-7.26c-1.56-2.28-3.41-4.3-5.34-6.08c-1.92-1.78-4-2.94-6.13-3.94c-2.14-0.99-4.19-1.26-6.03-1.26H218v10
				c-2-2.42-4.08-4.34-5.86-5.77c-1.78-1.42-3.41-2.48-4.91-3.2c-1.49-0.71-2.95-0.9-4.37-1.05c-1.43-0.14-2.85,0.02-4.27,0.02H139
				v91h24v-72h22.36c3.84,1,6.31,2.51,7.67,4.14c1.35,1.64,2.97,4.08,2.97,7.35v48.52L220,207.43z"/>
			<polyline fill="none" stroke="#000000" stroke-miterlimit="10" points="167.72,194.02 196,201.54 220,207.93 273.21,222.08 
				273.8,222.24 			"/>
			<polyline fill="none" stroke="#000000" stroke-width="2" stroke-miterlimit="10" points="281.51,272 281.53,272 345,272 345,253 
				278.37,253 278.31,253 			"/>
			<path fill="none" stroke="#000000" stroke-width="2" stroke-miterlimit="10" d="M284.32,289h-16.15c-0.29-1-0.5-1.91-0.64-2.48
				c-0.14-0.569-0.21-1.14-0.21-1.56c0-0.14,0.01-0.29,0.02-0.44c0.08-1.039,0.47-2.239,1.15-3.549c0.78-1.49,1.71-2.93,2.77-4.28
				c1.07-1.35,2.03-2.43,2.89-3.36c0.85-0.92,1.42-1.33,1.7-1.33h5.66l-3.2-19h-2.46c-5.97,0-11.38,1.4-16.22,4.53
				c-4.84,3.13-9,7.17-12.48,12.29c-3.49,5.12-6.16,10.91-8.01,17.6c-1.85,6.69-2.77,13.58-2.77,20.58h51.17h0.02"/>
			<polyline fill="none" stroke="#000000" stroke-width="2" stroke-miterlimit="10" points="290.23,324 290.2,324 235,324 235,344 
				289.15,344 			"/>
			<path fill="none" stroke="#000000" stroke-width="2" stroke-miterlimit="10" d="M289.16,344h49.02c2.27,0,4.37-0.85,6.29-2.56
				c1.92-1.7,3.56-3.87,4.91-6.5c1.35-2.631,2.61-5.58,3.32-8.86c0.72-3.271,1.3-6.47,1.3-9.6v-0.431c0-3.13-0.69-6.33-1.62-9.6
				c-0.92-3.28-2.21-6.23-3.63-8.86c-1.43-2.63-3.05-4.63-4.75-6.27c-1.71-1.63-3.41-2.32-4.97-2.32h-54.66h-0.05l2.19,12.85
				l1.05,6.15h36.32c1.28,0,2.27,1.07,2.98,3.06c0.71,2,1.07,3.671,1.07,4.95c0,0.57-0.07,1.34-0.21,2.26
				c-0.11,0.7-0.26,1.381-0.44,2.03c-0.06,0.22-0.13,0.44-0.2,0.65c-0.14,0.42-0.32,0.8-0.54,1.149c-0.21,0.36-0.46,0.7-0.74,1.021
				c-0.57,0.64-1.28,0.88-2.14,0.88h-33.43l2.35,14.16l-0.01,0.02l-3.42,5.82"/>
			<polyline fill="none" stroke="#000000" stroke-miterlimit="10" points="273.11,221.47 273.21,222.08 278.37,253 281.53,272 
				284.37,289 286.51,301.85 287.54,308 290.2,324 292.57,338.18 292.58,338.25 			"/>
			<polyline fill="none" stroke="#000000" stroke-miterlimit="10" points="292.58,338.25 289.16,344 289.15,344 268.25,379.12 			
				"/>
			<polyline fill="none" stroke="#000000" stroke-miterlimit="10" points="268.25,379.12 234.49,344.5 154.38,262.34 			"/>
			<path fill="none" stroke="#000000" stroke-miterlimit="10" d="M273.11,221.47C329,221,386,221,442.09,221.47"/>
			<path fill="none" stroke="#000000" stroke-width="2" stroke-miterlimit="10" d="M472.31,141h11.86c0.29,0,0.57,0.06,0.86,0.15
				c0.859,0.27,1.75,0.9,2.66,1.43c0.6,0.36,1.27,0.86,1.989,1.52c0.73,0.66,1.521,1.48,2.38,2.47c0.32,0.43,0.62,0.86,0.9,1.27
				c0.84,1.25,1.5,2.44,1.98,3.61c0.439,1.08,0.79,2.24,1.06,3.37c0.13,0.51,0.24,1.02,0.33,1.51l0.43,1.67h-30.89"/>
			<path fill="none" stroke="#000000" stroke-width="2" stroke-miterlimit="10" d="M458.45,177h25.29c0.99,0,2.17,0.41,3.52,1.19
				c1.351,0.78,2.7,1.79,4.05,3c1.36,1.21,2.71,2.6,4.061,4.16c1.35,1.57,2.45,3.07,3.31,4.49c0.71,1.14,1.63,3.61,2.771,7.31
				c1.14,3.7,2.35,8.85,3.63,15.85h26.89c0-3-0.569-6.46-1.7-10.3c-1.14-3.84-2.64-7.81-4.479-11.79c-1.86-3.99-3.95-7.93-6.3-11.7
				c-2.351-3.77-4.8-7.21-7.37-10.21h19.85c-0.989-5-2.91-10.85-5.76-16.47c-2.85-5.62-6.29-10.71-10.35-15.34
				c-4.061-4.62-8.61-8.14-13.66-11.06S491.85,122,486.3,122h-6.66"/>
			<polygon fill="none" stroke="#000000" stroke-width="2" stroke-miterlimit="10" points="465.35,158 440,158 440,141 471.84,141 
				472.31,141 479.64,122 479.1,122 416,122 416,213 440,213 440,177 458.1,177 458.45,177 465.87,158 			"/>
			<polyline fill="none" stroke="#000000" stroke-miterlimit="10" points="441.12,221.45 458.1,177 465.35,158 471.84,141 
				479.1,122 494.59,81.44 494.64,81.31 			"/>
			<line fill="none" stroke="#000000" stroke-miterlimit="10" x1="495.26" y1="81.48" x2="558.89" y2="122.25"/>
			<line fill="none" stroke="#000000" stroke-miterlimit="10" x1="614.68" y1="158" x2="588.15" y2="141"/>
			<path fill="none" stroke="#000000" stroke-width="2" stroke-miterlimit="10" d="M588.15,141H654v-19h-91.72
				c-1.011,0-2.15,0.05-3.391,0.25"/>
			<polyline fill="none" stroke="#000000" stroke-width="2" stroke-miterlimit="10" points="694,200.87 694,122 670,122 670,190.79 
				670,190.94 			"/>
			<polygon fill="none" stroke="#000000" stroke-width="2" stroke-miterlimit="10" points="670,190.94 670,213 694,213 694,200.95 
				694,200.87 685.68,197.43 			"/>
			<path fill="none" stroke="#000000" stroke-width="2" stroke-miterlimit="10" d="M722.37,213h0.12H728v-62.22
				c7,0.71,13.89,2.85,20.87,6.4c6.97,3.56,13.74,8.11,20.14,13.66c6.41,5.55,12.32,11.98,17.65,19.16c5.34,7.19,9.89,15,13.6,23
				H821v-91h-24v42.44c-4-5.69-9.4-11.1-15.87-16.22c-6.479-5.12-13.439-9.68-20.689-13.66c-7.261-3.98-14.641-6.92-22.03-9.27
				c-7.4-2.35-14.141-3.29-20.11-3.29H704v83.18v0.03"/>
			<polygon fill="none" stroke="#000000" stroke-width="2" stroke-miterlimit="10" points="722.37,213 704,205.21 704,213 			"/>
			<polyline fill="none" stroke="#000000" stroke-miterlimit="10" points="660.2,186.65 670,190.79 685.68,197.43 694,200.95 
				704,205.18 722.49,213 861.76,271.92 			"/>
			<path fill="none" stroke="#000000" stroke-width="2" stroke-miterlimit="10" d="M488.75,344h0.42h90.18
				c1.851,0,3.881-0.6,6.091-1.81c2.199-1.21,4.229-2.66,6.079-4.37c1.851-1.71,3.351-3.59,4.631-5.66
				c1.279-2.061,1.85-3.94,1.85-5.65V253h-12.01"/>
			<path fill="none" stroke="#000000" stroke-width="2" stroke-miterlimit="10" d="M565.32,272h0.31H574v40.42
				c0,3.7-1.24,6.58-2.44,8.21c-1.22,1.64-3.729,2.37-7.569,4.37H510v-0.62v-0.72"/>
			<path fill="none" stroke="#000000" stroke-width="2" stroke-miterlimit="10" d="M510,323.66v-40.05c1-2.851,1.92-5.24,3.2-7.09
				c1.28-1.84,3.62-3.52,6.609-4.52h45.511l12.92-11.87l7.75-7.13h-0.181H506.15c-2.141,0-4.381,0.33-6.73,1.32
				c-2.34,1-4.52,2.27-6.51,3.97c-1.99,1.71-3.67,3.63-4.95,5.83c-1.28,2.21-1.96,4.41-1.96,6.68V344h2.75L510,323.66z"/>
			<path fill="none" stroke="#000000" stroke-width="2" stroke-miterlimit="10" d="M657.53,185.46L628.43,213h11.33
				c2.7,0,5.26-0.8,7.681-2.3c2.42-1.49,4.59-3.55,6.51-6.11s3.45-5.49,4.59-8.76c1-2.89,1.53-5.96,1.66-9.18c0-0.02,0-0.04,0-0.06
				l-0.13-0.05c0,0.01,0.01,0.03,0,0.05l-0.021-0.01l-2.16-0.96"/>
			<path fill="none" stroke="#000000" stroke-width="2" stroke-miterlimit="10" d="M657.53,185.46L614.68,158H593v19h36.72
				c2.57,0,4.24,1.05,5.021,3.11c0.779,2.07,1.17,3.89,1.17,5.45c0,0.43-0.07,1.11-0.21,2.03c-0.141,0.93-0.46,1.82-0.96,2.67
				c-0.5,0.86-1.17,1.37-2.03,2.01c-0.85,0.64-1.99,0.73-3.41,0.73h-52.93c-3.71-1-6.4-2.4-7.75-3.82
				c-1.351-1.42-1.62-3.32-2.62-6.17v-30.52c1-2.85,1.94-5.18,3.37-7.03c1.42-1.84,3.79-3.46,6.78-4.46h12l-29.261-18.75
				c-0.689,0.11-1.399,0.25-2.159,0.48c-2.131,0.64-4.24,1.56-6.301,2.98c-2.06,1.42-3.979,3.22-5.55,5.49
				c-1.56,2.28-2.88,5.07-2.88,8.48v46.96c1,3.84,1.14,7.22,1.92,10.13c0.78,2.92,1.94,5.41,3.36,7.48
				c1.43,2.06,3.34,3.86,5.689,5.28c2.34,1.42,5.32,2.47,8.88,3.47h66.431h0.149"/>
			<path fill="none" stroke="#000000" stroke-width="2" stroke-miterlimit="10" d="M657.53,185.46l0.359,0.16l2.181,0.92
				c0.01-0.4-0.07-0.79-0.07-1.18v-0.43c0-4.27-0.38-8.11-1.37-11.53c-1-3.41-2.18-6.29-3.67-8.64c-1.5-2.35-3.07-3.93-4.78-5.14
				c-1.699-1.21-3.31-1.62-4.88-1.62h-30.62"/>
			<polyline fill="none" stroke="#000000" stroke-miterlimit="10" points="657.53,185.46 628.28,213 585.81,253 578.24,260.13 
				565.63,272 510,324.38 489.17,344 481.68,351.05 			"/>
			<polyline fill="none" stroke="#000000" stroke-miterlimit="10" points="495,81.32 494.59,81.44 421.38,103.32 420.07,103.71 			
				"/>
			<polyline fill="none" stroke="#000000" stroke-miterlimit="10" points="422.01,103.71 421.38,103.32 386,81.32 			"/>
			<line fill="none" stroke="#000000" stroke-miterlimit="10" x1="386" y1="81.32" x2="352.92" y2="81.32"/>
			<line fill="none" stroke="#000000" stroke-miterlimit="10" x1="386" y1="81.32" x2="405.23" y2="51.87"/>
			<polyline fill="none" stroke="#000000" stroke-miterlimit="10" points="403.04,51.15 405.23,51.87 495,81.32 			"/>
		</g>
	</g>
</g>
</svg>
